{
	"asset":{
		"generator":"Khronos glTF Blender I/O v4.1.63",
		"version":"2.0"
	},
	"scene":0,
	"scenes":[
		{
			"name":"Scene",
			"nodes":[
				0,
				1,
				2,
				3,
				4,
				5,
				6
			]
		}
	],
	"nodes":[
		{
			"mesh":0,
			"name":"Axe_2handed"
		},
		{
			"mesh":1,
			"name":"Axe_1handed"
		},
		{
			"mesh":2,
			"name":"Mug_empty"
		},
		{
			"mesh":3,
			"name":"Crossbow_1handed"
		},
		{
			"mesh":4,
			"name":"Crossbow_2handed"
		},
		{
			"mesh":5,
			"name":"Skeleton_Staff"
		},
		{
			"mesh":6,
			"name":"Chair"
		}
	],
	"materials":[
		{
			"name":"barbarian_texture",
			"pbrMetallicRoughness":{
				"baseColorTexture":{
					"index":0
				},
				"metallicFactor":0,
				"roughnessFactor":0.5
			}
		},
		{
			"name":"rogue_texture",
			"pbrMetallicRoughness":{
				"baseColorTexture":{
					"index":1
				},
				"metallicFactor":0,
				"roughnessFactor":0.5
			}
		},
		{
			"doubleSided":true,
			"name":"skeleton",
			"pbrMetallicRoughness":{
				"baseColorTexture":{
					"index":2
				},
				"metallicFactor":0,
				"roughnessFactor":0.5
			}
		},
		{
			"alphaMode":"BLEND",
			"doubleSided":true,
			"name":"texture",
			"pbrMetallicRoughness":{
				"baseColorTexture":{
					"index":3
				},
				"metallicFactor":0,
				"roughnessFactor":0.44999998807907104
			}
		}
	],
	"meshes":[
		{
			"name":"Axe_2handed",
			"primitives":[
				{
					"attributes":{
						"POSITION":0,
						"NORMAL":1,
						"TEXCOORD_0":2
					},
					"indices":3,
					"material":0
				}
			]
		},
		{
			"name":"Axe_1handed",
			"primitives":[
				{
					"attributes":{
						"POSITION":4,
						"NORMAL":5,
						"TEXCOORD_0":6
					},
					"indices":7,
					"material":0
				}
			]
		},
		{
			"name":"Mug_empty",
			"primitives":[
				{
					"attributes":{
						"POSITION":8,
						"NORMAL":9,
						"TEXCOORD_0":10
					},
					"indices":11,
					"material":0
				}
			]
		},
		{
			"name":"Crossbow_1handed",
			"primitives":[
				{
					"attributes":{
						"POSITION":12,
						"NORMAL":13,
						"TEXCOORD_0":14
					},
					"indices":15,
					"material":1
				}
			]
		},
		{
			"name":"Crossbow_2handed",
			"primitives":[
				{
					"attributes":{
						"POSITION":16,
						"NORMAL":17,
						"TEXCOORD_0":18
					},
					"indices":19,
					"material":1
				}
			]
		},
		{
			"name":"Skeleton_Staff",
			"primitives":[
				{
					"attributes":{
						"POSITION":20,
						"NORMAL":21,
						"TEXCOORD_0":22
					},
					"indices":23,
					"material":2
				}
			]
		},
		{
			"name":"Chair",
			"primitives":[
				{
					"attributes":{
						"POSITION":24,
						"NORMAL":25,
						"TEXCOORD_0":26
					},
					"indices":27,
					"material":3
				}
			]
		}
	],
	"textures":[
		{
			"sampler":0,
			"source":0
		},
		{
			"sampler":0,
			"source":1
		},
		{
			"sampler":0,
			"source":2
		},
		{
			"sampler":0,
			"source":3
		}
	],
	"images":[
		{
			"mimeType":"image/png",
			"name":"barbarian_texture",
			"uri":"barbarian_texture.png"
		},
		{
			"mimeType":"image/png",
			"name":"rogue_texture",
			"uri":"rogue_texture.png"
		},
		{
			"mimeType":"image/png",
			"name":"skeleton_texture",
			"uri":"skeleton_texture.png"
		},
		{
			"mimeType":"image/png",
			"name":"dungeon_texture",
			"uri":"dungeon_texture.png"
		}
	],
	"accessors":[
		{
			"bufferView":0,
			"componentType":5126,
			"count":591,
			"max":[
				0.619774341583252,
				1.2916465997695923,
				0.13090144097805023
			],
			"min":[
				-0.619774341583252,
				-0.43298184871673584,
				-0.1308993399143219
			],
			"type":"VEC3"
		},
		{
			"bufferView":1,
			"componentType":5126,
			"count":591,
			"type":"VEC3"
		},
		{
			"bufferView":2,
			"componentType":5126,
			"count":591,
			"type":"VEC2"
		},
		{
			"bufferView":3,
			"componentType":5123,
			"count":1524,
			"type":"SCALAR"
		},
		{
			"bufferView":4,
			"componentType":5126,
			"count":340,
			"max":[
				0.12546317279338837,
				0.9713736176490784,
				0.09248141944408417
			],
			"min":[
				-0.5888571739196777,
				-0.27304908633232117,
				-0.09248042106628418
			],
			"type":"VEC3"
		},
		{
			"bufferView":5,
			"componentType":5126,
			"count":340,
			"type":"VEC3"
		},
		{
			"bufferView":6,
			"componentType":5126,
			"count":340,
			"type":"VEC2"
		},
		{
			"bufferView":7,
			"componentType":5123,
			"count":822,
			"type":"SCALAR"
		},
		{
			"bufferView":8,
			"componentType":5126,
			"count":389,
			"max":[
				0.33625468611717224,
				0.2479030042886734,
				0.19797928631305695
			],
			"min":[
				-0.1979786902666092,
				-0.23884636163711548,
				-0.19797971844673157
			],
			"type":"VEC3"
		},
		{
			"bufferView":9,
			"componentType":5126,
			"count":389,
			"type":"VEC3"
		},
		{
			"bufferView":10,
			"componentType":5126,
			"count":389,
			"type":"VEC2"
		},
		{
			"bufferView":11,
			"componentType":5123,
			"count":1098,
			"type":"SCALAR"
		},
		{
			"bufferView":12,
			"componentType":5126,
			"count":681,
			"max":[
				0.4569547772407532,
				0.23463647067546844,
				0.944194495677948
			],
			"min":[
				-0.4544583261013031,
				-0.17123575508594513,
				-0.27768945693969727
			],
			"type":"VEC3"
		},
		{
			"bufferView":13,
			"componentType":5126,
			"count":681,
			"type":"VEC3"
		},
		{
			"bufferView":14,
			"componentType":5126,
			"count":681,
			"type":"VEC2"
		},
		{
			"bufferView":15,
			"componentType":5123,
			"count":1752,
			"type":"SCALAR"
		},
		{
			"bufferView":16,
			"componentType":5126,
			"count":945,
			"max":[
				0.6115943789482117,
				0.3080067038536072,
				1.1631805896759033
			],
			"min":[
				-0.611559271812439,
				-0.17123575508594513,
				-0.27768945693969727
			],
			"type":"VEC3"
		},
		{
			"bufferView":17,
			"componentType":5126,
			"count":945,
			"type":"VEC3"
		},
		{
			"bufferView":18,
			"componentType":5126,
			"count":945,
			"type":"VEC2"
		},
		{
			"bufferView":19,
			"componentType":5123,
			"count":2376,
			"type":"SCALAR"
		},
		{
			"bufferView":20,
			"componentType":5126,
			"count":1880,
			"max":[
				0.14001762866973877,
				1.255488395690918,
				0.38485029339790344
			],
			"min":[
				-0.4577472507953644,
				-0.8462717533111572,
				-0.36840343475341797
			],
			"type":"VEC3"
		},
		{
			"bufferView":21,
			"componentType":5126,
			"count":1880,
			"type":"VEC3"
		},
		{
			"bufferView":22,
			"componentType":5126,
			"count":1880,
			"type":"VEC2"
		},
		{
			"bufferView":23,
			"componentType":5123,
			"count":4557,
			"type":"SCALAR"
		},
		{
			"bufferView":24,
			"componentType":5126,
			"count":506,
			"max":[
				0.3762931525707245,
				1.2265056371688843,
				0.37500765919685364
			],
			"min":[
				-0.3737069070339203,
				2.9802322387695312e-08,
				-0.3750058114528656
			],
			"type":"VEC3"
		},
		{
			"bufferView":25,
			"componentType":5126,
			"count":506,
			"type":"VEC3"
		},
		{
			"bufferView":26,
			"componentType":5126,
			"count":506,
			"type":"VEC2"
		},
		{
			"bufferView":27,
			"componentType":5123,
			"count":882,
			"type":"SCALAR"
		}
	],
	"bufferViews":[
		{
			"buffer":0,
			"byteLength":7092,
			"byteOffset":0,
			"target":34962
		},
		{
			"buffer":0,
			"byteLength":7092,
			"byteOffset":7092,
			"target":34962
		},
		{
			"buffer":0,
			"byteLength":4728,
			"byteOffset":14184,
			"target":34962
		},
		{
			"buffer":0,
			"byteLength":3048,
			"byteOffset":18912,
			"target":34963
		},
		{
			"buffer":0,
			"byteLength":4080,
			"byteOffset":21960,
			"target":34962
		},
		{
			"buffer":0,
			"byteLength":4080,
			"byteOffset":26040,
			"target":34962
		},
		{
			"buffer":0,
			"byteLength":2720,
			"byteOffset":30120,
			"target":34962
		},
		{
			"buffer":0,
			"byteLength":1644,
			"byteOffset":32840,
			"target":34963
		},
		{
			"buffer":0,
			"byteLength":4668,
			"byteOffset":34484,
			"target":34962
		},
		{
			"buffer":0,
			"byteLength":4668,
			"byteOffset":39152,
			"target":34962
		},
		{
			"buffer":0,
			"byteLength":3112,
			"byteOffset":43820,
			"target":34962
		},
		{
			"buffer":0,
			"byteLength":2196,
			"byteOffset":46932,
			"target":34963
		},
		{
			"buffer":0,
			"byteLength":8172,
			"byteOffset":49128,
			"target":34962
		},
		{
			"buffer":0,
			"byteLength":8172,
			"byteOffset":57300,
			"target":34962
		},
		{
			"buffer":0,
			"byteLength":5448,
			"byteOffset":65472,
			"target":34962
		},
		{
			"buffer":0,
			"byteLength":3504,
			"byteOffset":70920,
			"target":34963
		},
		{
			"buffer":0,
			"byteLength":11340,
			"byteOffset":74424,
			"target":34962
		},
		{
			"buffer":0,
			"byteLength":11340,
			"byteOffset":85764,
			"target":34962
		},
		{
			"buffer":0,
			"byteLength":7560,
			"byteOffset":97104,
			"target":34962
		},
		{
			"buffer":0,
			"byteLength":4752,
			"byteOffset":104664,
			"target":34963
		},
		{
			"buffer":0,
			"byteLength":22560,
			"byteOffset":109416,
			"target":34962
		},
		{
			"buffer":0,
			"byteLength":22560,
			"byteOffset":131976,
			"target":34962
		},
		{
			"buffer":0,
			"byteLength":15040,
			"byteOffset":154536,
			"target":34962
		},
		{
			"buffer":0,
			"byteLength":9114,
			"byteOffset":169576,
			"target":34963
		},
		{
			"buffer":0,
			"byteLength":6072,
			"byteOffset":178692,
			"target":34962
		},
		{
			"buffer":0,
			"byteLength":6072,
			"byteOffset":184764,
			"target":34962
		},
		{
			"buffer":0,
			"byteLength":4048,
			"byteOffset":190836,
			"target":34962
		},
		{
			"buffer":0,
			"byteLength":1764,
			"byteOffset":194884,
			"target":34963
		}
	],
	"samplers":[
		{
			"magFilter":9729,
			"minFilter":9987
		}
	],
	"buffers":[
		{
			"byteLength":196648,
			"uri":"random_props.bin"
		}
	]
}
