{
	"asset":{
		"generator":"Khronos glTF Blender I/O v4.1.63",
		"version":"2.0"
	},
	"scene":0,
	"scenes":[
		{
			"name":"Scene",
			"nodes":[
				0,
				1,
				2
			]
		}
	],
	"nodes":[
		{
			"mesh":0,
			"name":"Helmet"
		},
		{
			"mesh":1,
			"name":"Shield"
		},
		{
			"mesh":2,
			"name":"Sword"
		}
	],
	"materials":[
		{
			"name":"pete_texture",
			"pbrMetallicRoughness":{
				"baseColorTexture":{
					"index":0
				},
				"metallicFactor":0,
				"roughnessFactor":0.5
			}
		}
	],
	"meshes":[
		{
			"name":"Helmet",
			"primitives":[
				{
					"attributes":{
						"POSITION":0,
						"NORMAL":1,
						"TEXCOORD_0":2
					},
					"indices":3,
					"material":0
				}
			]
		},
		{
			"name":"Shield",
			"primitives":[
				{
					"attributes":{
						"POSITION":4,
						"NORMAL":5,
						"TEXCOORD_0":6
					},
					"indices":7,
					"material":0
				}
			]
		},
		{
			"name":"Sword",
			"primitives":[
				{
					"attributes":{
						"POSITION":8,
						"NORMAL":9,
						"TEXCOORD_0":10
					},
					"indices":11,
					"material":0
				}
			]
		}
	],
	"textures":[
		{
			"sampler":0,
			"source":0
		}
	],
	"images":[
		{
			"mimeType":"image/png",
			"name":"pete_texture",
			"uri":"pete_texture.png"
		}
	],
	"accessors":[
		{
			"bufferView":0,
			"componentType":5126,
			"count":645,
			"max":[
				0.5550437569618225,
				1.1659473180770874,
				0.5724344253540039
			],
			"min":[
				-0.5550437569618225,
				-0.05062707141041756,
				-0.5486343502998352
			],
			"type":"VEC3"
		},
		{
			"bufferView":1,
			"componentType":5126,
			"count":645,
			"type":"VEC3"
		},
		{
			"bufferView":2,
			"componentType":5126,
			"count":645,
			"type":"VEC2"
		},
		{
			"bufferView":3,
			"componentType":5123,
			"count":1530,
			"type":"SCALAR"
		},
		{
			"bufferView":4,
			"componentType":5126,
			"count":282,
			"max":[
				0.4060075581073761,
				0.5226635336875916,
				0.13105341792106628
			],
			"min":[
				-0.4018675684928894,
				-0.5226927399635315,
				-0.15597231686115265
			],
			"type":"VEC3"
		},
		{
			"bufferView":5,
			"componentType":5126,
			"count":282,
			"type":"VEC3"
		},
		{
			"bufferView":6,
			"componentType":5126,
			"count":282,
			"type":"VEC2"
		},
		{
			"bufferView":7,
			"componentType":5123,
			"count":708,
			"type":"SCALAR"
		},
		{
			"bufferView":8,
			"componentType":5126,
			"count":398,
			"max":[
				0.2517186105251312,
				1.4475231170654297,
				0.10922467708587646
			],
			"min":[
				-0.25172585248947144,
				-0.365765780210495,
				-0.10922465473413467
			],
			"type":"VEC3"
		},
		{
			"bufferView":9,
			"componentType":5126,
			"count":398,
			"type":"VEC3"
		},
		{
			"bufferView":10,
			"componentType":5126,
			"count":398,
			"type":"VEC2"
		},
		{
			"bufferView":11,
			"componentType":5123,
			"count":1104,
			"type":"SCALAR"
		}
	],
	"bufferViews":[
		{
			"buffer":0,
			"byteLength":7740,
			"byteOffset":0,
			"target":34962
		},
		{
			"buffer":0,
			"byteLength":7740,
			"byteOffset":7740,
			"target":34962
		},
		{
			"buffer":0,
			"byteLength":5160,
			"byteOffset":15480,
			"target":34962
		},
		{
			"buffer":0,
			"byteLength":3060,
			"byteOffset":20640,
			"target":34963
		},
		{
			"buffer":0,
			"byteLength":3384,
			"byteOffset":23700,
			"target":34962
		},
		{
			"buffer":0,
			"byteLength":3384,
			"byteOffset":27084,
			"target":34962
		},
		{
			"buffer":0,
			"byteLength":2256,
			"byteOffset":30468,
			"target":34962
		},
		{
			"buffer":0,
			"byteLength":1416,
			"byteOffset":32724,
			"target":34963
		},
		{
			"buffer":0,
			"byteLength":4776,
			"byteOffset":34140,
			"target":34962
		},
		{
			"buffer":0,
			"byteLength":4776,
			"byteOffset":38916,
			"target":34962
		},
		{
			"buffer":0,
			"byteLength":3184,
			"byteOffset":43692,
			"target":34962
		},
		{
			"buffer":0,
			"byteLength":2208,
			"byteOffset":46876,
			"target":34963
		}
	],
	"samplers":[
		{
			"magFilter":9729,
			"minFilter":9987
		}
	],
	"buffers":[
		{
			"byteLength":49084,
			"uri":"pete_gear.bin"
		}
	]
}
