{
	"asset":{
		"generator":"Khronos glTF Blender I/O v4.3.47",
		"version":"2.0"
	},
	"scene":0,
	"scenes":[
		{
			"name":"Scene",
			"nodes":[
				29
			]
		}
	],
	"nodes":[
		{
			"name":"hand.l",
			"rotation":[
				1.8661403730455158e-16,
				-1.862648701944636e-09,
				1.8626449271863521e-09,
				1
			],
			"translation":[
				-4.753387017331079e-09,
				0.07382576912641525,
				4.440892098500626e-15
			]
		},
		{
			"children":[
				0
			],
			"name":"wrist.l",
			"rotation":[
				3.0717912657962643e-09,
				9.363432695863594e-08,
				0.026658087968826294,
				0.9996446371078491
			],
			"scale":[
				0.9999999403953552,
				1,
				1
			],
			"translation":[
				8.250086835914772e-09,
				0.26004400849342346,
				7.940309743048601e-09
			]
		},
		{
			"children":[
				1
			],
			"name":"lowerarm.l",
			"rotation":[
				-2.332946058558605e-09,
				-1.438062042780075e-07,
				-0.055296480655670166,
				0.9984699487686157
			],
			"scale":[
				1.0000001192092896,
				1,
				1
			],
			"translation":[
				-1.8762411624351216e-09,
				0.24189738929271698,
				3.1454898685723265e-09
			]
		},
		{
			"children":[
				2
			],
			"name":"upperarm.l",
			"rotation":[
				-0.51412433385849,
				-0.485464870929718,
				-0.4854649305343628,
				0.5141243934631348
			],
			"scale":[
				0.9999999403953552,
				1,
				1
			],
			"translation":[
				0.21200735867023468,
				0.13413232564926147,
				8.487840830184723e-08
			]
		},
		{
			"name":"hand.r",
			"rotation":[
				1.8661403730455158e-16,
				1.862648701944636e-09,
				-1.8626449271863521e-09,
				1
			],
			"translation":[
				4.753387017331079e-09,
				0.07382576912641525,
				4.440892098500626e-15
			]
		},
		{
			"children":[
				4
			],
			"name":"wrist.r",
			"rotation":[
				3.0717912657962643e-09,
				-9.363432695863594e-08,
				-0.026658087968826294,
				0.9996446371078491
			],
			"scale":[
				0.9999999403953552,
				1,
				1
			],
			"translation":[
				-8.250086835914772e-09,
				0.26004400849342346,
				7.940309743048601e-09
			]
		},
		{
			"children":[
				5
			],
			"name":"lowerarm.r",
			"rotation":[
				-2.332946058558605e-09,
				1.438062042780075e-07,
				0.055296480655670166,
				0.9984699487686157
			],
			"scale":[
				1.0000001192092896,
				1,
				1
			],
			"translation":[
				1.8762411624351216e-09,
				0.24189738929271698,
				3.1454898685723265e-09
			]
		},
		{
			"children":[
				6
			],
			"name":"upperarm.r",
			"rotation":[
				-0.51412433385849,
				0.485464870929718,
				0.4854649305343628,
				0.5141243934631348
			],
			"scale":[
				0.9999999403953552,
				1,
				1
			],
			"translation":[
				-0.21200735867023468,
				0.13413232564926147,
				8.487840830184723e-08
			]
		},
		{
			"name":"head",
			"rotation":[
				7.105427357601002e-15,
				4.235164736271502e-22,
				3.908201765591305e-29,
				1
			],
			"translation":[
				9.660381545317523e-29,
				0.2687966227531433,
				-7.105427357601002e-15
			]
		},
		{
			"children":[
				3,
				7,
				8
			],
			"name":"chest",
			"rotation":[
				0,
				-4.235164736271502e-22,
				2.612365983120535e-29,
				1
			],
			"translation":[
				-1.126917462429359e-28,
				0.37498795986175537,
				7.105427357601002e-15
			]
		},
		{
			"children":[
				9
			],
			"name":"spine",
			"rotation":[
				0,
				7.105427357601002e-15,
				1.0097419586828951e-28,
				1
			],
			"translation":[
				-1.2166613441248077e-28,
				0.19197750091552734,
				0
			]
		},
		{
			"name":"toes.l",
			"rotation":[
				1.695818525604409e-07,
				0.9203548431396484,
				-0.39108434319496155,
				3.9862948142399546e-07
			],
			"scale":[
				1,
				1,
				0.9999999403953552
			],
			"translation":[
				-2.7072047714682412e-08,
				0.16565005481243134,
				8.734062362236727e-09
			]
		},
		{
			"children":[
				11
			],
			"name":"foot.l",
			"rotation":[
				-0.4552399814128876,
				-2.7968448534920753e-07,
				-2.2968048085658666e-07,
				0.8903687596321106
			],
			"translation":[
				-5.252714707637551e-09,
				0.14943702518939972,
				5.792173851659754e-09
			]
		},
		{
			"children":[
				12
			],
			"name":"lowerleg.l",
			"rotation":[
				0.10622712224721909,
				6.291723479989741e-07,
				-6.403175945024486e-08,
				0.9943419098854065
			],
			"scale":[
				1,
				0.9999999403953552,
				0.9999998211860657
			],
			"translation":[
				3.5797742548027145e-09,
				0.2270774394273758,
				-3.4304292739761877e-09
			]
		},
		{
			"children":[
				13
			],
			"name":"upperleg.l",
			"rotation":[
				0.9998490810394287,
				-6.696909338188561e-08,
				-7.698361770280826e-08,
				0.01737395115196705
			],
			"scale":[
				1,
				1,
				1.0000003576278687
			],
			"translation":[
				0.17094506323337555,
				0.11358726024627686,
				1.392326964833046e-08
			]
		},
		{
			"name":"toes.r",
			"rotation":[
				1.695818525604409e-07,
				-0.9203548431396484,
				0.39108434319496155,
				3.9862948142399546e-07
			],
			"scale":[
				1,
				1,
				0.9999999403953552
			],
			"translation":[
				2.7072047714682412e-08,
				0.16565005481243134,
				8.734062362236727e-09
			]
		},
		{
			"children":[
				15
			],
			"name":"foot.r",
			"rotation":[
				-0.4552399814128876,
				2.7968448534920753e-07,
				2.2968048085658666e-07,
				0.8903687596321106
			],
			"translation":[
				5.252714707637551e-09,
				0.14943702518939972,
				5.792173851659754e-09
			]
		},
		{
			"children":[
				16
			],
			"name":"lowerleg.r",
			"rotation":[
				0.10622712224721909,
				-6.291723479989741e-07,
				6.403175945024486e-08,
				0.9943419098854065
			],
			"scale":[
				1,
				0.9999999403953552,
				0.9999998211860657
			],
			"translation":[
				-3.5797742548027145e-09,
				0.2270774394273758,
				-3.4304292739761877e-09
			]
		},
		{
			"children":[
				17
			],
			"name":"upperleg.r",
			"rotation":[
				0.9998490810394287,
				6.696909338188561e-08,
				7.698361770280826e-08,
				0.01737395115196705
			],
			"scale":[
				1,
				1,
				1.0000003576278687
			],
			"translation":[
				-0.17094506323337555,
				0.11358726024627686,
				1.392326964833046e-08
			]
		},
		{
			"children":[
				10,
				14,
				18
			],
			"name":"hips",
			"rotation":[
				0,
				-1.1920927533992653e-07,
				-5.048709793414476e-29,
				1
			],
			"translation":[
				0,
				0.4056634306907654,
				0
			]
		},
		{
			"children":[
				19
			],
			"name":"root",
			"rotation":[
				-0.7071067690849304,
				8.429368847373553e-08,
				-8.429368847373553e-08,
				0.7071067690849304
			]
		},
		{
			"mesh":0,
			"name":"Mannequin_Medium_ArmLeft",
			"skin":0
		},
		{
			"mesh":1,
			"name":"Mannequin_Medium_ArmRight",
			"skin":0
		},
		{
			"mesh":2,
			"name":"Mannequin_Medium_Body",
			"skin":0
		},
		{
			"mesh":3,
			"name":"Mannequin_Medium_Head",
			"skin":0
		},
		{
			"mesh":4,
			"name":"Mannequin_Medium_Head_Screen",
			"skin":0
		},
		{
			"mesh":5,
			"name":"Mannequin_Medium_LegLeft",
			"skin":0
		},
		{
			"mesh":6,
			"name":"Mannequin_Medium_LegRight",
			"skin":0
		},
		{
			"mesh":7,
			"name":"Mannequin_Medium_Tag",
			"skin":0
		},
		{
			"children":[
				21,
				22,
				23,
				24,
				25,
				26,
				27,
				28,
				20
			],
			"name":"Rig_Medium",
			"rotation":[
				0.7071068286895752,
				0,
				0,
				0.7071068286895752
			]
		}
	],
	"materials":[
		{
			"doubleSided":true,
			"name":"Character_Material",
			"pbrMetallicRoughness":{
				"baseColorTexture":{
					"index":0
				},
				"metallicFactor":0
			}
		}
	],
	"meshes":[
		{
			"name":"Mannequin_Medium_ArmLeft",
			"primitives":[
				{
					"attributes":{
						"POSITION":0,
						"NORMAL":1,
						"TEXCOORD_0":2,
						"JOINTS_0":3,
						"WEIGHTS_0":4
					},
					"indices":5,
					"material":0
				}
			]
		},
		{
			"name":"Mannequin_Medium_ArmRight",
			"primitives":[
				{
					"attributes":{
						"POSITION":7,
						"NORMAL":8,
						"TEXCOORD_0":9,
						"JOINTS_0":10,
						"WEIGHTS_0":11
					},
					"indices":12,
					"material":0
				}
			]
		},
		{
			"name":"Mannequin_Medium_Body",
			"primitives":[
				{
					"attributes":{
						"POSITION":13,
						"NORMAL":14,
						"TEXCOORD_0":15,
						"JOINTS_0":16,
						"WEIGHTS_0":17
					},
					"indices":18,
					"material":0
				}
			]
		},
		{
			"name":"Mannequin_Medium_Head",
			"primitives":[
				{
					"attributes":{
						"POSITION":19,
						"NORMAL":20,
						"TEXCOORD_0":21,
						"JOINTS_0":22,
						"WEIGHTS_0":23
					},
					"indices":24,
					"material":0
				}
			]
		},
		{
			"name":"Mannequin_Medium_Head.006",
			"primitives":[
				{
					"attributes":{
						"POSITION":25,
						"NORMAL":26,
						"TEXCOORD_0":27,
						"JOINTS_0":28,
						"WEIGHTS_0":29
					},
					"indices":30,
					"material":0
				}
			]
		},
		{
			"name":"Mannequin_Medium_LegLeft",
			"primitives":[
				{
					"attributes":{
						"POSITION":31,
						"NORMAL":32,
						"TEXCOORD_0":33,
						"JOINTS_0":34,
						"WEIGHTS_0":35
					},
					"indices":36,
					"material":0
				}
			]
		},
		{
			"name":"Mannequin_Medium_LegRight",
			"primitives":[
				{
					"attributes":{
						"POSITION":37,
						"NORMAL":38,
						"TEXCOORD_0":39,
						"JOINTS_0":40,
						"WEIGHTS_0":41
					},
					"indices":42,
					"material":0
				}
			]
		},
		{
			"name":"Mannequin_Medium_Body.001",
			"primitives":[
				{
					"attributes":{
						"POSITION":43,
						"NORMAL":44,
						"TEXCOORD_0":45,
						"JOINTS_0":46,
						"WEIGHTS_0":47
					},
					"indices":48,
					"material":0
				}
			]
		}
	],
	"textures":[
		{
			"sampler":0,
			"source":0
		}
	],
	"images":[
		{
			"mimeType":"image/png",
			"name":"mannequin_texture",
			"uri":"mannequin_texture.png"
		}
	],
	"skins":[
		{
			"inverseBindMatrices":6,
			"joints":[
				20,
				19,
				10,
				9,
				3,
				2,
				1,
				0,
				7,
				6,
				5,
				4,
				8,
				14,
				13,
				12,
				11,
				18,
				17,
				16,
				15
			],
			"name":"Rig_Medium"
		}
	],
	"accessors":[
		{
			"bufferView":0,
			"componentType":5126,
			"count":848,
			"max":[
				0.9892379641532898,
				1.2309730052947998,
				0.13387085497379303
			],
			"min":[
				0.08884599059820175,
				0.984550416469574,
				-0.13387127220630646
			],
			"type":"VEC3"
		},
		{
			"bufferView":1,
			"componentType":5126,
			"count":848,
			"type":"VEC3"
		},
		{
			"bufferView":2,
			"componentType":5126,
			"count":848,
			"type":"VEC2"
		},
		{
			"bufferView":3,
			"componentType":5121,
			"count":848,
			"type":"VEC4"
		},
		{
			"bufferView":4,
			"componentType":5126,
			"count":848,
			"type":"VEC4"
		},
		{
			"bufferView":5,
			"componentType":5123,
			"count":2862,
			"type":"SCALAR"
		},
		{
			"bufferView":6,
			"componentType":5126,
			"count":21,
			"type":"MAT4"
		},
		{
			"bufferView":7,
			"componentType":5126,
			"count":848,
			"max":[
				-0.08884594589471817,
				1.2309730052947998,
				0.13387085497379303
			],
			"min":[
				-0.9892379641532898,
				0.984550416469574,
				-0.13387127220630646
			],
			"type":"VEC3"
		},
		{
			"bufferView":8,
			"componentType":5126,
			"count":848,
			"type":"VEC3"
		},
		{
			"bufferView":9,
			"componentType":5126,
			"count":848,
			"type":"VEC2"
		},
		{
			"bufferView":10,
			"componentType":5121,
			"count":848,
			"type":"VEC4"
		},
		{
			"bufferView":11,
			"componentType":5126,
			"count":848,
			"type":"VEC4"
		},
		{
			"bufferView":12,
			"componentType":5123,
			"count":2862,
			"type":"SCALAR"
		},
		{
			"bufferView":13,
			"componentType":5126,
			"count":1204,
			"max":[
				0.3654126524925232,
				1.243556022644043,
				0.2793494164943695
			],
			"min":[
				-0.365415096282959,
				0.37641167640686035,
				-0.2571432590484619
			],
			"type":"VEC3"
		},
		{
			"bufferView":14,
			"componentType":5126,
			"count":1204,
			"type":"VEC3"
		},
		{
			"bufferView":15,
			"componentType":5126,
			"count":1204,
			"type":"VEC2"
		},
		{
			"bufferView":16,
			"componentType":5121,
			"count":1204,
			"type":"VEC4"
		},
		{
			"bufferView":17,
			"componentType":5126,
			"count":1204,
			"type":"VEC4"
		},
		{
			"bufferView":18,
			"componentType":5123,
			"count":3222,
			"type":"SCALAR"
		},
		{
			"bufferView":19,
			"componentType":5126,
			"count":666,
			"max":[
				0.4324360191822052,
				1.981481671333313,
				0.45072317123413086
			],
			"min":[
				-0.4324359595775604,
				1.0990135669708252,
				-0.4697432816028595
			],
			"type":"VEC3"
		},
		{
			"bufferView":20,
			"componentType":5126,
			"count":666,
			"type":"VEC3"
		},
		{
			"bufferView":21,
			"componentType":5126,
			"count":666,
			"type":"VEC2"
		},
		{
			"bufferView":22,
			"componentType":5121,
			"count":666,
			"type":"VEC4"
		},
		{
			"bufferView":23,
			"componentType":5126,
			"count":666,
			"type":"VEC4"
		},
		{
			"bufferView":24,
			"componentType":5123,
			"count":1650,
			"type":"SCALAR"
		},
		{
			"bufferView":25,
			"componentType":5126,
			"count":196,
			"max":[
				0.41782838106155396,
				2.2067835330963135,
				0.538348376750946
			],
			"min":[
				-0.4178283214569092,
				1.2978851795196533,
				-0.47371232509613037
			],
			"type":"VEC3"
		},
		{
			"bufferView":26,
			"componentType":5126,
			"count":196,
			"type":"VEC3"
		},
		{
			"bufferView":27,
			"componentType":5126,
			"count":196,
			"type":"VEC2"
		},
		{
			"bufferView":28,
			"componentType":5121,
			"count":196,
			"type":"VEC4"
		},
		{
			"bufferView":29,
			"componentType":5126,
			"count":196,
			"type":"VEC4"
		},
		{
			"bufferView":30,
			"componentType":5123,
			"count":768,
			"type":"SCALAR"
		},
		{
			"bufferView":31,
			"componentType":5126,
			"count":1389,
			"max":[
				0.287893682718277,
				0.5291943550109863,
				0.26347222924232483
			],
			"min":[
				0.04919802024960518,
				-2.6525774956098758e-05,
				-0.12226996570825577
			],
			"type":"VEC3"
		},
		{
			"bufferView":32,
			"componentType":5126,
			"count":1389,
			"type":"VEC3"
		},
		{
			"bufferView":33,
			"componentType":5126,
			"count":1389,
			"type":"VEC2"
		},
		{
			"bufferView":34,
			"componentType":5121,
			"count":1389,
			"type":"VEC4"
		},
		{
			"bufferView":35,
			"componentType":5126,
			"count":1389,
			"type":"VEC4"
		},
		{
			"bufferView":36,
			"componentType":5123,
			"count":4404,
			"type":"SCALAR"
		},
		{
			"bufferView":37,
			"componentType":5126,
			"count":1387,
			"max":[
				-0.049197982996702194,
				0.5291943550109863,
				0.26347222924232483
			],
			"min":[
				-0.2878936231136322,
				-2.6525774956098758e-05,
				-0.12226996570825577
			],
			"type":"VEC3"
		},
		{
			"bufferView":38,
			"componentType":5126,
			"count":1387,
			"type":"VEC3"
		},
		{
			"bufferView":39,
			"componentType":5126,
			"count":1387,
			"type":"VEC2"
		},
		{
			"bufferView":40,
			"componentType":5121,
			"count":1387,
			"type":"VEC4"
		},
		{
			"bufferView":41,
			"componentType":5126,
			"count":1387,
			"type":"VEC4"
		},
		{
			"bufferView":42,
			"componentType":5123,
			"count":4404,
			"type":"SCALAR"
		},
		{
			"bufferView":43,
			"componentType":5126,
			"count":40,
			"max":[
				-0.08152622729539871,
				1.070966362953186,
				0.25093743205070496
			],
			"min":[
				-0.22910982370376587,
				0.9660416841506958,
				0.15985435247421265
			],
			"type":"VEC3"
		},
		{
			"bufferView":44,
			"componentType":5126,
			"count":40,
			"type":"VEC3"
		},
		{
			"bufferView":45,
			"componentType":5126,
			"count":40,
			"type":"VEC2"
		},
		{
			"bufferView":46,
			"componentType":5121,
			"count":40,
			"type":"VEC4"
		},
		{
			"bufferView":47,
			"componentType":5126,
			"count":40,
			"type":"VEC4"
		},
		{
			"bufferView":48,
			"componentType":5123,
			"count":96,
			"type":"SCALAR"
		}
	],
	"bufferViews":[
		{
			"buffer":0,
			"byteLength":10176,
			"byteOffset":0,
			"target":34962
		},
		{
			"buffer":0,
			"byteLength":10176,
			"byteOffset":10176,
			"target":34962
		},
		{
			"buffer":0,
			"byteLength":6784,
			"byteOffset":20352,
			"target":34962
		},
		{
			"buffer":0,
			"byteLength":3392,
			"byteOffset":27136,
			"target":34962
		},
		{
			"buffer":0,
			"byteLength":13568,
			"byteOffset":30528,
			"target":34962
		},
		{
			"buffer":0,
			"byteLength":5724,
			"byteOffset":44096,
			"target":34963
		},
		{
			"buffer":0,
			"byteLength":1344,
			"byteOffset":49820
		},
		{
			"buffer":0,
			"byteLength":10176,
			"byteOffset":51164,
			"target":34962
		},
		{
			"buffer":0,
			"byteLength":10176,
			"byteOffset":61340,
			"target":34962
		},
		{
			"buffer":0,
			"byteLength":6784,
			"byteOffset":71516,
			"target":34962
		},
		{
			"buffer":0,
			"byteLength":3392,
			"byteOffset":78300,
			"target":34962
		},
		{
			"buffer":0,
			"byteLength":13568,
			"byteOffset":81692,
			"target":34962
		},
		{
			"buffer":0,
			"byteLength":5724,
			"byteOffset":95260,
			"target":34963
		},
		{
			"buffer":0,
			"byteLength":14448,
			"byteOffset":100984,
			"target":34962
		},
		{
			"buffer":0,
			"byteLength":14448,
			"byteOffset":115432,
			"target":34962
		},
		{
			"buffer":0,
			"byteLength":9632,
			"byteOffset":129880,
			"target":34962
		},
		{
			"buffer":0,
			"byteLength":4816,
			"byteOffset":139512,
			"target":34962
		},
		{
			"buffer":0,
			"byteLength":19264,
			"byteOffset":144328,
			"target":34962
		},
		{
			"buffer":0,
			"byteLength":6444,
			"byteOffset":163592,
			"target":34963
		},
		{
			"buffer":0,
			"byteLength":7992,
			"byteOffset":170036,
			"target":34962
		},
		{
			"buffer":0,
			"byteLength":7992,
			"byteOffset":178028,
			"target":34962
		},
		{
			"buffer":0,
			"byteLength":5328,
			"byteOffset":186020,
			"target":34962
		},
		{
			"buffer":0,
			"byteLength":2664,
			"byteOffset":191348,
			"target":34962
		},
		{
			"buffer":0,
			"byteLength":10656,
			"byteOffset":194012,
			"target":34962
		},
		{
			"buffer":0,
			"byteLength":3300,
			"byteOffset":204668,
			"target":34963
		},
		{
			"buffer":0,
			"byteLength":2352,
			"byteOffset":207968,
			"target":34962
		},
		{
			"buffer":0,
			"byteLength":2352,
			"byteOffset":210320,
			"target":34962
		},
		{
			"buffer":0,
			"byteLength":1568,
			"byteOffset":212672,
			"target":34962
		},
		{
			"buffer":0,
			"byteLength":784,
			"byteOffset":214240,
			"target":34962
		},
		{
			"buffer":0,
			"byteLength":3136,
			"byteOffset":215024,
			"target":34962
		},
		{
			"buffer":0,
			"byteLength":1536,
			"byteOffset":218160,
			"target":34963
		},
		{
			"buffer":0,
			"byteLength":16668,
			"byteOffset":219696,
			"target":34962
		},
		{
			"buffer":0,
			"byteLength":16668,
			"byteOffset":236364,
			"target":34962
		},
		{
			"buffer":0,
			"byteLength":11112,
			"byteOffset":253032,
			"target":34962
		},
		{
			"buffer":0,
			"byteLength":5556,
			"byteOffset":264144,
			"target":34962
		},
		{
			"buffer":0,
			"byteLength":22224,
			"byteOffset":269700,
			"target":34962
		},
		{
			"buffer":0,
			"byteLength":8808,
			"byteOffset":291924,
			"target":34963
		},
		{
			"buffer":0,
			"byteLength":16644,
			"byteOffset":300732,
			"target":34962
		},
		{
			"buffer":0,
			"byteLength":16644,
			"byteOffset":317376,
			"target":34962
		},
		{
			"buffer":0,
			"byteLength":11096,
			"byteOffset":334020,
			"target":34962
		},
		{
			"buffer":0,
			"byteLength":5548,
			"byteOffset":345116,
			"target":34962
		},
		{
			"buffer":0,
			"byteLength":22192,
			"byteOffset":350664,
			"target":34962
		},
		{
			"buffer":0,
			"byteLength":8808,
			"byteOffset":372856,
			"target":34963
		},
		{
			"buffer":0,
			"byteLength":480,
			"byteOffset":381664,
			"target":34962
		},
		{
			"buffer":0,
			"byteLength":480,
			"byteOffset":382144,
			"target":34962
		},
		{
			"buffer":0,
			"byteLength":320,
			"byteOffset":382624,
			"target":34962
		},
		{
			"buffer":0,
			"byteLength":160,
			"byteOffset":382944,
			"target":34962
		},
		{
			"buffer":0,
			"byteLength":640,
			"byteOffset":383104,
			"target":34962
		},
		{
			"buffer":0,
			"byteLength":192,
			"byteOffset":383744,
			"target":34963
		}
	],
	"samplers":[
		{
			"magFilter":9729,
			"minFilter":9987,
			"wrapS":33071,
			"wrapT":33071
		}
	],
	"buffers":[
		{
			"byteLength":383936,
			"uri":"manny_med_mod.bin"
		}
	]
}
