{
	"asset":{
		"generator":"Khronos glTF Blender I/O v4.1.63",
		"version":"2.0"
	},
	"scene":0,
	"scenes":[
		{
			"name":"Scene",
			"nodes":[
				22
			]
		}
	],
	"nodes":[
		{
			"name":"hand.l",
			"rotation":[
				-0.2662877142429352,
				1.7622996395516566e-08,
				-9.918153409671504e-09,
				0.9638935923576355
			],
			"translation":[
				1.7763568394002505e-15,
				0.0738258883357048,
				5.551115123125783e-15
			]
		},
		{
			"children":[
				0
			],
			"name":"wrist.l",
			"rotation":[
				2.7661941626178077e-09,
				7.58356222263501e-08,
				0.026658102869987488,
				0.9996446371078491
			],
			"scale":[
				0.9999999403953552,
				0.9999999403953552,
				1
			],
			"translation":[
				-1.394788284869719e-09,
				0.26004382967948914,
				6.82779166538694e-09
			]
		},
		{
			"children":[
				1
			],
			"name":"lowerarm.l",
			"rotation":[
				-1.1988163794995899e-09,
				-1.6407778957727714e-07,
				-0.05529648810625076,
				0.9984699487686157
			],
			"translation":[
				-3.0918840820959304e-09,
				0.2418973594903946,
				2.5366018174821647e-09
			]
		},
		{
			"children":[
				2
			],
			"name":"upperarm.l",
			"rotation":[
				-0.5141243934631348,
				-0.4854649305343628,
				-0.48546484112739563,
				0.51412433385849
			],
			"translation":[
				0.21200735867023468,
				0.13413238525390625,
				4.24812540700259e-08
			]
		},
		{
			"name":"hand.r",
			"rotation":[
				-0.2662877142429352,
				-1.7622996395516566e-08,
				9.918153409671504e-09,
				0.9638935923576355
			],
			"translation":[
				-1.7763568394002505e-15,
				0.0738258883357048,
				5.551115123125783e-15
			]
		},
		{
			"children":[
				4
			],
			"name":"wrist.r",
			"rotation":[
				2.7661941626178077e-09,
				-7.58356222263501e-08,
				-0.026658102869987488,
				0.9996446371078491
			],
			"scale":[
				0.9999999403953552,
				0.9999999403953552,
				1
			],
			"translation":[
				1.394788284869719e-09,
				0.26004382967948914,
				6.82779166538694e-09
			]
		},
		{
			"children":[
				5
			],
			"name":"lowerarm.r",
			"rotation":[
				-1.1988163794995899e-09,
				1.6407778957727714e-07,
				0.05529648810625076,
				0.9984699487686157
			],
			"translation":[
				3.0918840820959304e-09,
				0.2418973594903946,
				2.5366018174821647e-09
			]
		},
		{
			"children":[
				6
			],
			"name":"upperarm.r",
			"rotation":[
				-0.5141243934631348,
				0.4854649305343628,
				0.48546484112739563,
				0.51412433385849
			],
			"translation":[
				-0.21200735867023468,
				0.13413238525390625,
				4.2481264728166934e-08
			]
		},
		{
			"name":"head",
			"rotation":[
				-1.580422974711837e-07,
				1.1534134436392663e-28,
				-2.2459161282197286e-21,
				1
			],
			"translation":[
				1.1957402644917274e-21,
				0.2687966823577881,
				-8.496245129663293e-08
			]
		},
		{
			"children":[
				3,
				7,
				8
			],
			"name":"chest",
			"rotation":[
				1.5804231168203842e-07,
				-6.983991331387927e-29,
				2.2459163301681203e-21,
				1
			],
			"translation":[
				-3.949080605569629e-23,
				0.3749878406524658,
				-6.8833827526759706e-15
			]
		},
		{
			"children":[
				9
			],
			"name":"spine",
			"rotation":[
				-3.303156148604103e-08,
				7.105427357601002e-15,
				8.881782079418884e-16,
				1
			],
			"translation":[
				-9.283266696692358e-17,
				0.19197750091552734,
				-1.2734654220025732e-08
			]
		},
		{
			"name":"toes.l",
			"rotation":[
				1.695819520364239e-07,
				0.9203548431396484,
				-0.39108437299728394,
				3.9862948142399546e-07
			],
			"scale":[
				1,
				0.9999999403953552,
				1
			],
			"translation":[
				2.7302862193323563e-09,
				0.16565003991127014,
				5.008779169202171e-09
			]
		},
		{
			"children":[
				11
			],
			"name":"foot.l",
			"rotation":[
				-0.45524004101753235,
				-2.796847411445924e-07,
				-2.2968069401940738e-07,
				0.8903687596321106
			],
			"translation":[
				-5.252741352990142e-09,
				0.14943701028823853,
				2.066997240035562e-09
			]
		},
		{
			"children":[
				12
			],
			"name":"lowerleg.l",
			"rotation":[
				0.10622713714838028,
				6.291759291343624e-07,
				-6.403210761618539e-08,
				0.9943418502807617
			],
			"scale":[
				1,
				0.9999999403953552,
				0.9999998807907104
			],
			"translation":[
				1.8480806218690304e-08,
				0.2270774096250534,
				2.936992871127586e-10
			]
		},
		{
			"children":[
				13
			],
			"name":"upperleg.l",
			"rotation":[
				0.9998490810394287,
				-6.696915733073183e-08,
				-7.698702830793991e-08,
				0.017373988404870033
			],
			"scale":[
				1,
				1,
				1.0000003576278687
			],
			"translation":[
				0.17094506323337555,
				0.11358726024627686,
				6.3673195604962984e-09
			]
		},
		{
			"name":"toes.r",
			"rotation":[
				1.6958189519300504e-07,
				-0.9203548431396484,
				0.39108437299728394,
				3.986294245805766e-07
			],
			"scale":[
				1,
				0.9999999403953552,
				1
			],
			"translation":[
				-2.7302822225294676e-09,
				0.16565003991127014,
				5.008757852920098e-09
			]
		},
		{
			"children":[
				15
			],
			"name":"foot.r",
			"rotation":[
				-0.45524004101753235,
				2.7968488325313956e-07,
				2.2968066559769795e-07,
				0.8903687596321106
			],
			"translation":[
				5.252741352990142e-09,
				0.14943701028823853,
				2.067011450890277e-09
			]
		},
		{
			"children":[
				16
			],
			"name":"lowerleg.r",
			"rotation":[
				0.10622713714838028,
				-6.291760428212001e-07,
				6.40321218270401e-08,
				0.9943418502807617
			],
			"scale":[
				1,
				0.9999999403953552,
				0.9999998807907104
			],
			"translation":[
				-1.8480806218690304e-08,
				0.2270774096250534,
				2.936904053285616e-10
			]
		},
		{
			"children":[
				17
			],
			"name":"upperleg.r",
			"rotation":[
				0.9998490810394287,
				6.696916443615919e-08,
				7.698702830793991e-08,
				0.017373988404870033
			],
			"scale":[
				1,
				1,
				1.0000003576278687
			],
			"translation":[
				-0.17094506323337555,
				0.11358726024627686,
				6.367329330458915e-09
			]
		},
		{
			"children":[
				10,
				14,
				18
			],
			"name":"hips",
			"rotation":[
				-0.04243916645646095,
				-1.1910190522712583e-07,
				3.7513592232585324e-10,
				0.99909907579422
			],
			"scale":[
				1,
				1,
				0.9999999403953552
			],
			"translation":[
				3.796843284220586e-09,
				0.4042021334171295,
				-0.03440103679895401
			]
		},
		{
			"children":[
				19
			],
			"name":"root",
			"rotation":[
				-0.6764606833457947,
				8.395250006287824e-08,
				-8.448301258567881e-08,
				0.7364787459373474
			],
			"scale":[
				1,
				1.0000001192092896,
				1
			]
		},
		{
			"mesh":0,
			"name":"Mannequin",
			"skin":0
		},
		{
			"children":[
				21,
				20
			],
			"name":"Armature",
			"rotation":[
				0.7071068286895752,
				0,
				0,
				0.7071068286895752
			]
		}
	],
	"materials":[
		{
			"doubleSided":true,
			"name":"Character_Material",
			"pbrMetallicRoughness":{
				"baseColorTexture":{
					"index":0
				},
				"metallicFactor":0,
				"roughnessFactor":0.30000001192092896
			}
		}
	],
	"meshes":[
		{
			"name":"Mannequin",
			"primitives":[
				{
					"attributes":{
						"POSITION":0,
						"NORMAL":1,
						"TEXCOORD_0":2,
						"JOINTS_0":3,
						"WEIGHTS_0":4
					},
					"indices":5,
					"material":0
				}
			]
		}
	],
	"textures":[
		{
			"sampler":0,
			"source":0
		}
	],
	"images":[
		{
			"mimeType":"image/png",
			"name":"mannequin_blue",
			"uri":"mannequin_blue.png"
		}
	],
	"skins":[
		{
			"inverseBindMatrices":6,
			"joints":[
				20,
				19,
				10,
				9,
				3,
				2,
				1,
				0,
				7,
				6,
				5,
				4,
				8,
				14,
				13,
				12,
				11,
				18,
				17,
				16,
				15
			],
			"name":"Armature"
		}
	],
	"accessors":[
		{
			"bufferView":0,
			"componentType":5126,
			"count":6442,
			"max":[
				0.9712533354759216,
				2.108550548553467,
				0.4512592554092407
			],
			"min":[
				-0.9712533354759216,
				-2.6522202460910194e-05,
				-0.45041391253471375
			],
			"type":"VEC3"
		},
		{
			"bufferView":1,
			"componentType":5126,
			"count":6442,
			"type":"VEC3"
		},
		{
			"bufferView":2,
			"componentType":5126,
			"count":6442,
			"type":"VEC2"
		},
		{
			"bufferView":3,
			"componentType":5121,
			"count":6442,
			"type":"VEC4"
		},
		{
			"bufferView":4,
			"componentType":5126,
			"count":6442,
			"type":"VEC4"
		},
		{
			"bufferView":5,
			"componentType":5123,
			"count":20508,
			"type":"SCALAR"
		},
		{
			"bufferView":6,
			"componentType":5126,
			"count":21,
			"type":"MAT4"
		}
	],
	"bufferViews":[
		{
			"buffer":0,
			"byteLength":77304,
			"byteOffset":0,
			"target":34962
		},
		{
			"buffer":0,
			"byteLength":77304,
			"byteOffset":77304,
			"target":34962
		},
		{
			"buffer":0,
			"byteLength":51536,
			"byteOffset":154608,
			"target":34962
		},
		{
			"buffer":0,
			"byteLength":25768,
			"byteOffset":206144,
			"target":34962
		},
		{
			"buffer":0,
			"byteLength":103072,
			"byteOffset":231912,
			"target":34962
		},
		{
			"buffer":0,
			"byteLength":41016,
			"byteOffset":334984,
			"target":34963
		},
		{
			"buffer":0,
			"byteLength":1344,
			"byteOffset":376000
		}
	],
	"samplers":[
		{
			"magFilter":9729,
			"minFilter":9987
		}
	],
	"buffers":[
		{
			"byteLength":377344,
			"uri":"mannequin.bin"
		}
	]
}
