{
	"asset":{
		"generator":"Khronos glTF Blender I/O v4.1.63",
		"version":"2.0"
	},
	"scene":0,
	"scenes":[
		{
			"name":"Scene",
			"nodes":[
				22
			]
		}
	],
	"nodes":[
		{
			"name":"hand.l",
			"rotation":[
				-0.2662877142429352,
				1.7120903805789567e-08,
				-1.1735600935480761e-08,
				0.9638935923576355
			],
			"translation":[
				2.6645352591003757e-15,
				0.0738258883357048,
				-1.3322676295501878e-15
			]
		},
		{
			"children":[
				0
			],
			"name":"wrist.l",
			"rotation":[
				2.0007369094798833e-09,
				7.581522254440642e-08,
				0.02665810100734234,
				0.9996446371078491
			],
			"scale":[
				0.9999999403953552,
				0.9999999403953552,
				1
			],
			"translation":[
				-3.3689069312003994e-09,
				0.26004382967948914,
				5.735577790488833e-09
			]
		},
		{
			"children":[
				1
			],
			"name":"lowerarm.l",
			"rotation":[
				-2.1973760311322366e-10,
				-1.6413201819887036e-07,
				-0.055296480655670166,
				0.9984699487686157
			],
			"translation":[
				-2.94237167963729e-09,
				0.2418973445892334,
				1.284703010639987e-09
			]
		},
		{
			"children":[
				2
			],
			"name":"upperarm.l",
			"rotation":[
				-0.5141243934631348,
				-0.4854649305343628,
				-0.48546484112739563,
				0.51412433385849
			],
			"translation":[
				0.21200735867023468,
				0.13413238525390625,
				4.2481200779320716e-08
			]
		},
		{
			"name":"hand.r",
			"rotation":[
				-0.2662877142429352,
				-1.7120903805789567e-08,
				1.1735600935480761e-08,
				0.9638935923576355
			],
			"translation":[
				-2.6645352591003757e-15,
				0.0738258883357048,
				-1.3322676295501878e-15
			]
		},
		{
			"children":[
				4
			],
			"name":"wrist.r",
			"rotation":[
				2.0007364653906734e-09,
				-7.581522254440642e-08,
				-0.02665810100734234,
				0.9996446371078491
			],
			"scale":[
				0.9999999403953552,
				0.9999999403953552,
				1
			],
			"translation":[
				3.3689069312003994e-09,
				0.26004382967948914,
				5.735576902310413e-09
			]
		},
		{
			"children":[
				5
			],
			"name":"lowerarm.r",
			"rotation":[
				-2.1976429009917808e-10,
				1.6413201819887036e-07,
				0.055296480655670166,
				0.9984699487686157
			],
			"translation":[
				2.94237167963729e-09,
				0.2418973445892334,
				1.2846790298226551e-09
			]
		},
		{
			"children":[
				6
			],
			"name":"upperarm.r",
			"rotation":[
				-0.5141243934631348,
				0.4854649305343628,
				0.48546484112739563,
				0.51412433385849
			],
			"translation":[
				-0.21200735867023468,
				0.13413238525390625,
				4.2481200779320716e-08
			]
		},
		{
			"name":"head",
			"rotation":[
				-1.5804225483861956e-07,
				-4.0903441366780903e-23,
				-1.3710526731002103e-20,
				1
			],
			"translation":[
				7.198200815238173e-21,
				0.2687966823577881,
				-8.496253656176123e-08
			]
		},
		{
			"children":[
				3,
				7,
				8
			],
			"name":"chest",
			"rotation":[
				1.5804226904947427e-07,
				-5.293967279936412e-23,
				1.3593419282014762e-20,
				1
			],
			"translation":[
				-1.4192932971246774e-24,
				0.3749878406524658,
				-7.101957910649048e-15
			]
		},
		{
			"children":[
				9
			],
			"name":"spine",
			"rotation":[
				-3.352760913344355e-08,
				7.105427357601002e-15,
				8.881757727221651e-16,
				1
			],
			"translation":[
				-9.283165449785381e-17,
				0.19197747111320496,
				-1.2786500747097307e-08
			]
		},
		{
			"name":"toes.l",
			"rotation":[
				1.6958099990915798e-07,
				0.9203548431396484,
				-0.3910844027996063,
				3.986294245805766e-07
			],
			"scale":[
				1,
				0.9999998211860657,
				1
			],
			"translation":[
				-1.217108192008709e-08,
				0.16565003991127014,
				-6.167475419260882e-09
			]
		},
		{
			"children":[
				11
			],
			"name":"foot.l",
			"rotation":[
				-0.45524004101753235,
				-2.796839169150189e-07,
				-2.296791308253887e-07,
				0.8903687596321106
			],
			"scale":[
				1,
				0.9999999403953552,
				1
			],
			"translation":[
				-5.2525424010241295e-09,
				0.14943701028823853,
				-1.6589893903073971e-09
			]
		},
		{
			"children":[
				12
			],
			"name":"lowerleg.l",
			"rotation":[
				0.10622711479663849,
				6.291760428212001e-07,
				-6.403258367981834e-08,
				0.9943419098854065
			],
			"scale":[
				1,
				0.9999999403953552,
				0.9999998211860657
			],
			"translation":[
				1.848073161170305e-08,
				0.2270774096250534,
				-1.5696528521402797e-09
			]
		},
		{
			"children":[
				13
			],
			"name":"upperleg.l",
			"rotation":[
				0.9998490810394287,
				-6.696919996329598e-08,
				-7.69890746710189e-08,
				0.017373984679579735
			],
			"scale":[
				1,
				1,
				1.0000003576278687
			],
			"translation":[
				0.17094506323337555,
				0.11358723044395447,
				6.3932503735486534e-09
			]
		},
		{
			"name":"toes.r",
			"rotation":[
				1.6958099990915798e-07,
				-0.9203548431396484,
				0.3910844027996063,
				3.986294245805766e-07
			],
			"scale":[
				1,
				0.9999998211860657,
				1
			],
			"translation":[
				1.217108280826551e-08,
				0.16565003991127014,
				-6.167496735542954e-09
			]
		},
		{
			"children":[
				15
			],
			"name":"foot.r",
			"rotation":[
				-0.45524004101753235,
				2.796840874452755e-07,
				2.296792018796623e-07,
				0.8903687596321106
			],
			"scale":[
				1,
				0.9999999403953552,
				1
			],
			"translation":[
				5.252552170986746e-09,
				0.14943701028823853,
				-1.658975179452682e-09
			]
		},
		{
			"children":[
				16
			],
			"name":"lowerleg.r",
			"rotation":[
				0.10622711479663849,
				-6.291760428212001e-07,
				6.403256236353627e-08,
				0.9943419098854065
			],
			"scale":[
				1,
				0.9999999403953552,
				0.9999998211860657
			],
			"translation":[
				-1.848073338805989e-08,
				0.2270774096250534,
				-1.569649299426601e-09
			]
		},
		{
			"children":[
				17
			],
			"name":"upperleg.r",
			"rotation":[
				0.9998490810394287,
				6.696919996329598e-08,
				7.69890746710189e-08,
				0.017373984679579735
			],
			"scale":[
				1,
				1,
				1.0000003576278687
			],
			"translation":[
				-0.17094506323337555,
				0.11358723044395447,
				6.3932503735486534e-09
			]
		},
		{
			"children":[
				10,
				14,
				18
			],
			"name":"hips",
			"rotation":[
				-0.04243916645646095,
				-1.1910190522712583e-07,
				3.751330357459892e-10,
				0.99909907579422
			],
			"translation":[
				3.796847725112684e-09,
				0.4042021334171295,
				-0.03440104052424431
			]
		},
		{
			"children":[
				19
			],
			"name":"root",
			"rotation":[
				0.042439162731170654,
				1.1910191943798054e-07,
				-3.751390309503222e-10,
				0.99909907579422
			],
			"scale":[
				1,
				1,
				1.0000001192092896
			]
		},
		{
			"mesh":0,
			"name":"Mannequin",
			"skin":0
		},
		{
			"children":[
				21,
				20
			],
			"name":"Armature"
		}
	],
	"materials":[
		{
			"doubleSided":true,
			"name":"Character_Material",
			"pbrMetallicRoughness":{
				"baseColorTexture":{
					"index":0
				},
				"metallicFactor":0,
				"roughnessFactor":0.30000001192092896
			}
		}
	],
	"meshes":[
		{
			"name":"Mannequin",
			"primitives":[
				{
					"attributes":{
						"POSITION":0,
						"NORMAL":1,
						"TEXCOORD_0":2,
						"JOINTS_0":3,
						"WEIGHTS_0":4
					},
					"indices":5,
					"material":0
				}
			]
		}
	],
	"textures":[
		{
			"sampler":0,
			"source":0
		}
	],
	"images":[
		{
			"mimeType":"image/png",
			"name":"mannequin_blue",
			"uri":"mannequin_blue.png"
		}
	],
	"skins":[
		{
			"inverseBindMatrices":6,
			"joints":[
				20,
				19,
				10,
				9,
				3,
				2,
				1,
				0,
				7,
				6,
				5,
				4,
				8,
				14,
				13,
				12,
				11,
				18,
				17,
				16,
				15
			],
			"name":"Armature"
		}
	],
	"accessors":[
		{
			"bufferView":0,
			"componentType":5126,
			"count":6442,
			"max":[
				0.9712533354759216,
				2.108550548553467,
				0.4512592554092407
			],
			"min":[
				-0.9712533354759216,
				-2.6522202460910194e-05,
				-0.45041391253471375
			],
			"type":"VEC3"
		},
		{
			"bufferView":1,
			"componentType":5126,
			"count":6442,
			"type":"VEC3"
		},
		{
			"bufferView":2,
			"componentType":5126,
			"count":6442,
			"type":"VEC2"
		},
		{
			"bufferView":3,
			"componentType":5121,
			"count":6442,
			"type":"VEC4"
		},
		{
			"bufferView":4,
			"componentType":5126,
			"count":6442,
			"type":"VEC4"
		},
		{
			"bufferView":5,
			"componentType":5123,
			"count":20508,
			"type":"SCALAR"
		},
		{
			"bufferView":6,
			"componentType":5126,
			"count":21,
			"type":"MAT4"
		}
	],
	"bufferViews":[
		{
			"buffer":0,
			"byteLength":77304,
			"byteOffset":0,
			"target":34962
		},
		{
			"buffer":0,
			"byteLength":77304,
			"byteOffset":77304,
			"target":34962
		},
		{
			"buffer":0,
			"byteLength":51536,
			"byteOffset":154608,
			"target":34962
		},
		{
			"buffer":0,
			"byteLength":25768,
			"byteOffset":206144,
			"target":34962
		},
		{
			"buffer":0,
			"byteLength":103072,
			"byteOffset":231912,
			"target":34962
		},
		{
			"buffer":0,
			"byteLength":41016,
			"byteOffset":334984,
			"target":34963
		},
		{
			"buffer":0,
			"byteLength":1344,
			"byteOffset":376000
		}
	],
	"samplers":[
		{
			"magFilter":9729,
			"minFilter":9987
		}
	],
	"buffers":[
		{
			"byteLength":377344,
			"uri":"mannequin.bin"
		}
	]
}
